<svg width="1000" height="750" xmlns="http://www.w3.org/2000/svg"><title>Graduation Hat Silhouette</title><title>Layer 1</title><g opacity=".9"><path d="M335.048 136.819l415.168 178.845-112.21 324.417c-26.068 52.374-28.238 53.502-60.354 67.952-36.806 11.53-74.602 9.722-107.975 5.674-83.72-10.153-165.74-45.66-244.054-136.481-25.953-28.603-12.576-99.265 1.012-124.806L335.048 136.82z" stroke-width=".241" stroke="#d3d3d3"/><path d="M68.728 61.51l509.618 50.608L989.454 444.06 431.069 499.14 68.729 61.509zM109.28 434.19l25.047 9.66c-21.392 88.002-45.047 212.93-60.794 228.154-23.07 26.324-75.326 19.12-71.307-20.509C31.278 585.803 73.308 522.811 109.28 434.19z"/><path d="M574.848 254.42c-21.753 5.854-45.242-33.122-55.136-25.234-1.036.827-3.088 7.148-3.778 8.987 7.278 19.919 32.983 31.3 54.842 23.833l4.072-7.586z"/><path d="M536.595 237.248l11.283 11.9c-80.972-4.145-276.773-57.682-331.751-24.018-16.68 10.43-35.892 81.96-56.812 121.51l-16.285-6.86c19.485-39.094 38.068-101.688 55.253-121.594 18.034-20.067 63.981-36.511 338.312 19.062zM124.224 373.715l30.658 6.355-21.064 70.448-30.658-6.356zM575.71 243.032c61.854-2.508 124.08-.448 186.404 28.04 3.23.244 4.789 9.726-5.66 5.691-56.827-20.685-118.19-21.14-178.246-27.429-8.092.388-7.33-6.267-2.497-6.302zM569.356 260.311c52.503 45.133 103.194 95.664 141.704 175.83 2.568 2.776-.537 14.59-7.338 1.98-37.568-67.18-88.289-115.246-135.216-168.825-6.897-5.838-3.176-12.69.85-8.985zM540.046 231.189C490.467 181.44 437.2 133.348 364.3 96.448c-2.866-2.439-11.177.378.496 6.88 62.557 35.902 113.92 84.001 168.511 128.582 6.442 6.534 10.731 3.096 6.74-.721z"/><path d="M165.925 374.506a24.2 35.044 23.305 1 1-44.451-19.148 24.2 35.044 23.305 1 1 44.45 19.148zM574.848 254.419c-18.08 7.616-48.453-5.982-55.829-24.05 3.946-9.16 19.643-11.203 35.06-4.561 15.417 6.64 24.715 19.45 20.77 28.611zM583.167 255.723c61.854-2.509 124.08-.448 186.403 28.04 3.23.243 4.79 9.725-5.66 5.69-56.826-20.685-118.19-21.139-178.245-27.428-8.092.388-7.33-6.267-2.498-6.302zM557.892 263.105c52.972 45.858 104.109 97.14 142.918 178.183 2.59 2.815-.556 14.693-7.411 1.939-37.87-67.954-89.04-116.754-136.374-171.078-6.958-5.932-3.195-12.807.867-9.044z"/><path d="M354.483 89.463c58.762 34.279 116.582 72.984 167.028 136.083 2.963 2.135 1.747 11.788-6.92 1.893-47.49-52.663-104.956-89.38-159.544-130.695-7.704-4.43-5.109-10.107-.564-7.28z"/></g></svg>